<svg viewBox="0 0 90 90" fill="none" xmlns="http://www.w3.org/2000/svg">
  <g id="AR&#230;&#137;&#171;&#228;&#184;&#128;&#230;&#137;&#171; 1">
    <path id="Vector"
      d="M43.125 81.3419V73.1257H46.875V81.3419L75.8381 66.8594C76.1495 66.7038 76.4115 66.4646 76.5946 66.1685C76.7777 65.8725 76.8748 65.5313 76.875 65.1832V50.6257H80.625V65.1832C80.625 66.2276 80.3341 67.2515 79.7851 68.14C79.236 69.0285 78.4504 69.7466 77.5163 70.2138L47.5163 85.2138C46.735 85.6045 45.8735 85.808 45 85.808C44.1265 85.808 43.265 85.6045 42.4838 85.2138L12.4838 70.2138C11.5496 69.7466 10.764 69.0285 10.2149 68.14C9.66588 67.2515 9.37504 66.2276 9.375 65.1832V50.6257H13.125V65.1832C13.1252 65.5313 13.2223 65.8725 13.4054 66.1685C13.5885 66.4646 13.8505 66.7038 14.1619 66.8594L43.125 81.3419ZM46.875 8.65942V16.8757H43.125V8.65942L14.1619 23.1419C13.8505 23.2975 13.5885 23.5367 13.4054 23.8328C13.2223 24.1289 13.1252 24.4701 13.125 24.8182V39.3757H9.375V24.8182C9.37504 23.7737 9.66588 22.7499 10.2149 21.8614C10.764 20.9729 11.5496 20.2548 12.4838 19.7875L42.4838 4.78754C43.265 4.39679 44.1265 4.19336 45 4.19336C45.8735 4.19336 46.735 4.39679 47.5163 4.78754L77.5163 19.7875C78.4504 20.2548 79.236 20.9729 79.7851 21.8614C80.3341 22.7499 80.625 23.7737 80.625 24.8182V39.3757H76.875V24.8182C76.8748 24.4701 76.7777 24.1289 76.5946 23.8328C76.4115 23.5367 76.1495 23.2975 75.8381 23.1419L46.875 8.65942ZM34.6763 31.9694H36.2719L48.0188 58.1257H43.6838L40.9294 51.7507H29.6906L26.7656 58.1257H22.5L34.6763 31.9694ZM39.315 48.0269L35.4206 39.1019L31.3406 48.0269H39.315ZM57.5719 46.9394L65.7 58.1257H60.855L53.3588 47.3819H52.6444V58.1257H48.6825V31.8757H53.3231C56.7919 31.8757 59.2969 32.5282 60.8381 33.8313C62.5387 35.2807 63.3881 37.1969 63.3881 39.5782C63.3881 41.4344 62.8556 43.0338 61.7906 44.3725C60.7256 45.7094 59.3194 46.5663 57.5738 46.9394H57.5719ZM52.6406 43.93H53.9006C57.6506 43.93 59.5275 42.4957 59.5275 39.6288C59.5275 36.9419 57.7031 35.5975 54.0525 35.5975H52.6425V43.93H52.6406Z"
      fill="white" stroke="white" />
  </g>
</svg>