<svg xmlns="http://www.w3.org/2000/svg" viewBox="0 0 70 69" fill="none">
  <path
    d="M18.1285 36.5617C16.9685 36.5617 16.0195 35.6127 16.0195 34.4528V26.0171C16.0195 24.8572 16.9685 23.9082 18.1285 23.9082C19.2884 23.9082 20.2374 24.8572 20.2374 26.0171V34.4528C20.2374 35.6127 19.2884 36.5617 18.1285 36.5617ZM41.5164 36.5617C40.3565 36.5617 39.4075 35.6127 39.4075 34.4528V26.0171C39.4075 24.8572 40.3565 23.9082 41.5164 23.9082C42.6763 23.9082 43.6253 24.8572 43.6253 26.0171V34.4528C43.6253 35.6127 42.6974 36.5617 41.5164 36.5617ZM29.833 32.3439C28.6731 32.3439 27.724 31.3949 27.724 30.235V26.0171C27.724 24.8572 28.6731 23.9082 29.833 23.9082C30.9929 23.9082 31.9419 24.8572 31.9419 26.0171V30.235C31.9419 31.3949 30.9929 32.3439 29.833 32.3439ZM53.2209 32.3439C52.061 32.3439 51.112 31.3949 51.112 30.235V26.0171C51.112 24.8572 52.061 23.9082 53.2209 23.9082C54.3808 23.9082 55.3298 24.8572 55.3298 26.0171V30.235C55.3298 31.3949 54.3808 32.3439 53.2209 32.3439Z"
    fill="black" stroke="black" />
  <path
    d="M62.4159 44.9974H7.58402C6.42411 44.9974 5.4751 44.0484 5.4751 42.8885V26.0171C5.4751 24.8572 6.42411 23.9082 7.58402 23.9082H62.4159C63.5758 23.9082 64.5248 24.8572 64.5248 26.0171V42.8885C64.5248 44.0484 63.5758 44.9974 62.4159 44.9974ZM9.69294 40.7796H60.307V28.126H9.69294V40.7796Z"
    fill="black" stroke="black" />
</svg>