<svg viewBox="0 0 38 37" fill="none" xmlns="http://www.w3.org/2000/svg">
  <g id="Group 48095795">
    <g id="Group 48095798">
      <path id="Vector"
        d="M26.2192 15.4136L26.2193 15.4135C27.6579 14.8732 28.7306 14.8947 29.4415 15.4606C30.1534 16.0273 30.5112 17.1466 30.502 18.8245V18.8246C30.502 20.4359 30.1001 21.8628 29.2941 23.1439C28.4881 24.4252 27.4641 25.3031 26.1845 25.7781L26.1844 25.7782L23.425 26.8132V16.4541L26.2192 15.4136ZM26.0725 24.058L26.0726 24.058C26.9038 23.744 27.5501 23.1899 28.0295 22.3784C28.509 21.5665 28.7299 20.6261 28.7299 19.5401C28.7299 18.5101 28.4909 17.7856 27.9874 17.3758L27.987 17.3755C27.4838 16.9837 26.8508 16.9299 26.057 17.2251L26.057 17.2251L25.1207 17.5741L25.1062 17.5795V17.595V24.3858V24.4179L25.1363 24.4067L26.0725 24.058ZM13.1829 20.8616V20.876L13.196 20.8819C13.9274 21.2114 14.5111 21.6491 14.9488 22.2694L14.9488 22.2694L14.9494 22.2702C15.3875 22.8362 15.6055 23.419 15.6055 24.0189C15.6055 24.4748 15.5143 24.8511 15.3335 25.1449C15.153 25.4383 14.882 25.6509 14.5192 25.778L14.5188 25.7782C13.7923 26.0505 12.8252 25.9611 11.6156 25.5395C10.5386 25.1559 9.68162 24.7004 9.02424 24.137V22.4029C9.73292 23.1193 10.5311 23.6406 11.4541 23.9663L11.4543 23.9664C12.0426 24.1688 12.5264 24.2258 12.8825 24.0946C13.0613 24.0288 13.194 23.9201 13.2818 23.7707C13.3693 23.6217 13.4111 23.4339 13.4111 23.211C13.4111 22.7448 13.2055 22.3174 12.7797 21.9285C12.3548 21.5403 11.7831 21.2086 11.0284 20.9506C11.0283 20.9506 11.0283 20.9506 11.0283 20.9506L10.1071 20.626V19.1125L10.9401 19.3962C10.9402 19.3962 10.9402 19.3963 10.9402 19.3963C11.6474 19.6441 12.1808 19.7196 12.5388 19.619C12.7188 19.5683 12.8549 19.4731 12.9457 19.3328C13.0362 19.193 13.0803 19.0106 13.0803 18.7876C13.0803 18.3604 12.9455 17.9972 12.6734 17.6924C12.4017 17.3881 11.9942 17.1432 11.4507 16.9499L11.4507 16.9499L11.4503 16.9497C10.7412 16.7135 10.0667 16.674 9.40988 16.8674V15.2287C10.1173 15.1418 10.9699 15.2523 11.9311 15.5969L11.9312 15.5969C12.9194 15.9449 13.7238 16.4388 14.3452 17.0782C14.9661 17.7172 15.2751 18.4093 15.2751 19.155C15.2751 19.7856 15.1019 20.2366 14.7605 20.5104C14.4185 20.7846 13.9026 20.8853 13.2078 20.8029L13.1829 20.7999V20.825V20.8616Z"
        fill="#A8A8A8" stroke="#A8A8A8" stroke-width="0.0445822" />
      <path id="Vector 572"
        d="M3.93475 8.78262L17.8938 1.80311C18.9021 1.29895 20.0915 1.31134 21.0891 1.83639L34.2551 8.76585C35.405 9.37108 36.125 10.5636 36.125 11.8631V25.9101C36.125 27.2627 35.3457 28.4942 34.1233 29.0732L20.9607 35.3081C20.0339 35.7471 18.9613 35.7576 18.0261 35.3367L4.06372 29.0537C2.80775 28.4885 2 27.2392 2 25.8619V11.9131C2 10.5874 2.74901 9.3755 3.93475 8.78262Z"
        stroke="#A8A8A8" stroke-width="2.625" stroke-linecap="round" />
      <path id="Vector 569"
        d="M10.75 11.4988L17.8446 14.4779C18.9313 14.9342 20.1522 14.9526 21.2521 14.5292L29.125 11.4988"
        stroke="#A8A8A8" stroke-width="2.625" stroke-linecap="round" />
      <path id="Vector 570" d="M19.5 26.3738L19.5 15.8738" stroke="#A8A8A8" stroke-width="2.625"
        stroke-linecap="round" />
    </g>
  </g>
</svg>