<svg viewBox="0 0 56 56" fill="none" xmlns="http://www.w3.org/2000/svg">
  <rect fill="#D8D8D8" fill-opacity="0.01" />
  <path
    d="M28 12C34.8706 12 41.1896 13.3882 45.865 15.7259C50.4207 18.0038 54 21.5207 54 26C54 28.8057 52.5827 31.2386 50.4378 33.2075L51.8451 35.7461L42.424 35.2515L46.997 26.9999L48.4221 29.571C49.5113 28.3545 50 27.1318 50 26C50 23.852 48.2067 21.3689 44.0761 19.3036C40.0661 17.2986 34.3868 16.0006 28.0043 16H28L27.5907 16.0018L27.5864 16.0018C21.2994 16.0572 15.7254 17.3709 11.7961 19.368C7.7519 21.4236 6 23.8757 6 26C6 27.9691 7.4935 30.2189 10.9856 32.1972C11.9466 32.7416 12.2843 33.9621 11.7399 34.9232C11.1954 35.8842 9.97496 36.222 9.0139 35.6775C5.03792 33.425 2 30.1175 2 26C2 21.5682 5.50576 18.0782 9.98371 15.8022C14.5757 13.4682 20.7867 12.061 27.5559 12.002L27.5646 12.0019L28 12Z"
    fill="black" />
  <path
    d="M21.1398 29.4399C22.5798 29.4399 23.7598 29.7799 24.6398 30.4799C25.4998 31.1799 25.9398 32.1399 25.9398 33.3799C25.9398 34.9399 25.1398 35.9799 23.5598 36.4999C24.3998 36.7599 25.0598 37.1399 25.4998 37.6599C25.9798 38.1999 26.2198 38.8999 26.2198 39.7399C26.2198 41.0599 25.7598 42.1399 24.8398 42.9799C23.8798 43.8399 22.6198 44.2799 21.0598 44.2799C19.5798 44.2799 18.3798 43.8999 17.4798 43.1399C16.4798 42.2999 15.9198 41.0599 15.7998 39.4599H18.1798C18.2198 40.3799 18.4998 41.0999 19.0598 41.5999C19.5598 42.0599 20.2198 42.2999 21.0398 42.2999C21.9398 42.2999 22.6598 42.0399 23.1798 41.5399C23.6398 41.0799 23.8798 40.5199 23.8798 39.8399C23.8798 39.0199 23.6198 38.4199 23.1398 38.0399C22.6598 37.6399 21.9598 37.4599 21.0398 37.4599H20.0398V35.6999H21.0398C21.8798 35.6999 22.5198 35.5199 22.9598 35.1599C23.3798 34.7999 23.5998 34.2599 23.5998 33.5599C23.5998 32.8599 23.3998 32.3399 23.0198 31.9799C22.5998 31.6199 21.9798 31.4399 21.1598 31.4399C20.3198 31.4399 19.6798 31.6399 19.2198 32.0599C18.7398 32.4799 18.4598 33.1199 18.3798 33.9799H16.0798C16.1998 32.5399 16.7198 31.4199 17.6798 30.6199C18.5798 29.8199 19.7398 29.4399 21.1398 29.4399Z"
    fill="black" />
  <path fill-rule="evenodd" clip-rule="evenodd"
    d="M28.392 29.7199H33.612C35.932 29.7199 37.672 30.3599 38.872 31.6399C40.012 32.8399 40.592 34.5799 40.592 36.8599C40.592 39.1199 40.012 40.8599 38.872 42.0799C37.672 43.3599 35.932 43.9999 33.612 43.9999H28.392V29.7199ZM30.732 31.7199V41.9999H33.172C34.952 41.9999 36.252 41.5799 37.072 40.7599C37.872 39.9199 38.272 38.6199 38.272 36.8599C38.272 35.0599 37.872 33.7399 37.072 32.9399C36.252 32.1199 34.952 31.7199 33.172 31.7199H30.732Z"
    fill="black" />
</svg>