<svg width="21" height="20" viewBox="0 0 21 20" fill="none" xmlns="http://www.w3.org/2000/svg">
<g id="Group 1000005879">
<path id="Rectangle 8067" d="M2 8.5L9.89255 2.46452C10.2511 2.19033 10.7489 2.19033 11.1075 2.46452L19 8.5" stroke="#1A1A1A" stroke-linecap="round" stroke-linejoin="round"/>
<path id="Subtract" d="M2.9 7.7C2.64819 7.88885 2.5 8.18524 2.5 8.5V17C2.5 17.5523 2.94772 18 3.5 18H8V16C8 14.6193 9.11929 13.5 10.5 13.5C11.8807 13.5 13 14.6193 13 16V18H17.5C18.0523 18 18.5 17.5523 18.5 17V8.5C18.5 8.18524 18.3518 7.88885 18.1 7.7L11.1 2.45C10.7444 2.18333 10.2556 2.18333 9.9 2.45L2.9 7.7Z" fill="#1A1A1A"/>
</g>
</svg>
