<svg width="20" height="20" viewBox="0 0 20 20" fill="none" xmlns="http://www.w3.org/2000/svg">
<g id="Group 1000005878">
<path id="Vector" d="M18 19H2V14.05C2.58947 13.5801 3.24265 13.2011 3.93885 12.925C5.8869 12.1411 7.96631 11.7588 10.0583 11.8C12.1317 11.7541 14.193 12.1367 16.1195 12.925C16.7994 13.1973 17.4337 13.5769 17.9996 14.05V19H18ZM9.45205 13.15V16.75H10.7671V13.15H9.45205ZM10 11.125C9.35155 11.1283 8.70892 10.9994 8.1093 10.746C7.50968 10.4926 6.96499 10.1196 6.50674 9.64858C6.04795 9.17815 5.68461 8.61898 5.43774 8.00344C5.19086 7.3879 5.06536 6.72821 5.06849 6.06254C5.06534 5.39687 5.19083 4.73718 5.4377 4.12163C5.68458 3.50609 6.04793 2.94692 6.50674 2.4765C6.965 2.00553 7.5097 1.63254 8.10932 1.37911C8.70893 1.12568 9.35156 0.996843 10 1.00006C10.6484 0.996818 11.2911 1.12564 11.8907 1.37907C12.4903 1.63251 13.035 2.00551 13.4933 2.4765C13.952 2.94694 14.3154 3.5061 14.5623 4.12164C14.8091 4.73719 14.9346 5.39688 14.9315 6.06254C14.9346 6.72821 14.8091 7.3879 14.5623 8.00344C14.3154 8.61898 13.952 9.17815 13.4933 9.64858C13.0351 10.1195 12.4904 10.4925 11.8909 10.7459C11.2914 10.9994 10.6488 11.1282 10.0004 11.125H10Z" fill="#1A1A1A"/>
</g>
</svg>
