<svg width="20" height="20" viewBox="0 0 20 20" fill="currentColor" xmlns="http://www.w3.org/2000/svg">
<g id="Group 1000005878">
<path id="Vector" d="M18 18.7655H2V13.9445C2.58947 13.4868 3.24265 13.1177 3.93885 12.8488C5.8869 12.0853 7.96631 11.713 10.0583 11.7531C12.1317 11.7084 14.193 12.0811 16.1195 12.8488C16.7994 13.114 17.4337 13.4837 17.9996 13.9445V18.7655H18ZM9.45205 13.068V16.5742H10.7671V13.068H9.45205ZM10 11.0957C9.35155 11.0989 8.70892 10.9734 8.1093 10.7266C7.50968 10.4798 6.96499 10.1165 6.50674 9.65776C6.04795 9.19958 5.68461 8.65498 5.43774 8.05548C5.19086 7.45597 5.06536 6.81347 5.06849 6.16514C5.06534 5.51682 5.19083 4.87431 5.4377 4.2748C5.68458 3.67529 6.04793 3.13069 6.50674 2.67253C6.965 2.21383 7.5097 1.85056 8.10932 1.60373C8.70893 1.3569 9.35156 1.23142 10 1.23456C10.6484 1.2314 11.2911 1.35687 11.8907 1.6037C12.4903 1.85052 13.035 2.21381 13.4933 2.67253C13.952 3.13071 14.3154 3.67531 14.5623 4.27481C14.8091 4.87432 14.9346 5.51682 14.9315 6.16514C14.9346 6.81347 14.8091 7.45597 14.5623 8.05548C14.3154 8.65498 13.952 9.19958 13.4933 9.65776C13.0351 10.1164 12.4904 10.4797 11.8909 10.7265C11.2914 10.9733 10.6488 11.0988 10.0004 11.0957H10Z" fill="currentColor"/>
</g>
</svg>
